<?xml version="1.0" encoding="utf-8"?>
<!-- Generator: Adobe Illustrator 27.6.1, SVG Export Plug-In . SVG Version: 6.00 Build 0)  -->
<svg version="1.1" id="Layer_1" xmlns="http://www.w3.org/2000/svg" xmlns:xlink="http://www.w3.org/1999/xlink" x="0px" y="0px"
	 viewBox="0 0 935.93 967.58" style="enable-background:new 0 0 935.93 967.58;" xml:space="preserve">
<style type="text/css">
	.st0{fill:#E00271;}
</style>
<g>
	<path class="st0" d="M467.92,651.08c-135.52,0-249.87,92.5-283.27,217.7c22.91,18.1,47.39,34.01,73.27,47.39
		c21.07-96.52,107.28-169,210.01-169c102.82,0,188.93,72.48,210.09,168.91c25.88-13.38,50.36-29.2,73.18-47.3
		C717.88,743.59,603.52,651.08,467.92,651.08z"/>
	<path class="st0" d="M467.92,834.6c-66.1,0-120.65,50.53-126.95,114.97c40.39,11.72,82.97,18.01,126.95,18.01
		c44.06,0,86.64-6.3,127.03-18.1C588.57,885.05,534.11,834.6,467.92,834.6z"/>
	<path class="st0" d="M467.92,0C209.48,0,0,216.56,0,483.75c0,118.03,40.92,226.27,108.85,310.2
		c58.84-140.32,197.68-239.03,359.07-239.03c161.48,0,300.23,98.71,359.16,239.03c67.93-83.93,108.85-192.17,108.85-310.2
		C935.93,216.56,726.36,0,467.92,0z"/>
</g>
</svg>
