<?xml version="1.0" encoding="utf-8"?>
<!-- Generator: Adobe Illustrator 27.6.1, SVG Export Plug-In . SVG Version: 6.00 Build 0)  -->
<svg version="1.1" id="Layer_1" xmlns="http://www.w3.org/2000/svg" xmlns:xlink="http://www.w3.org/1999/xlink" x="0px" y="0px"
	 viewBox="0 0 1281.83 281.33" style="enable-background:new 0 0 1281.83 281.33;" xml:space="preserve">
<style type="text/css">
	.st0{enable-background:new    ;}
	.st1{fill:#ffffff;}
	.st2{fill:#E00271;}
</style>
<g>
	<g class="st0">
		<path class="st1" d="M371.01,94.03h18.2v79.62h-18.2v-31.62h-25.02v31.62h-18.2V94.03h18.2v30.48h25.02V94.03z"/>
		<path class="st1" d="M417.53,152.04c1.97,5.31,6.52,7.96,13.65,7.96c4.62,0,8.26-1.44,10.92-4.32l13.65,7.85
			c-5.61,7.81-13.88,11.72-24.8,11.72c-9.55,0-17.19-2.84-22.92-8.53s-8.59-12.85-8.59-21.5c0-8.57,2.82-15.71,8.47-21.44
			c5.65-5.72,12.91-8.59,21.78-8.59c8.26,0,15.15,2.86,20.64,8.59c5.5,5.73,8.25,12.87,8.25,21.44c0,2.43-0.23,4.7-0.68,6.83h-40.37
			V152.04z M417.19,139.3h24.45c-1.67-5.99-5.69-8.99-12.06-8.99C422.99,130.32,418.85,133.31,417.19,139.3z"/>
		<path class="st1" d="M468.26,173.65V90.62h17.06v83.03H468.26z"/>
		<path class="st1" d="M531.84,115.19c7.51,0,13.91,2.9,19.22,8.7c5.31,5.8,7.96,12.91,7.96,21.33s-2.66,15.53-7.96,21.33
			c-5.31,5.8-11.72,8.7-19.22,8.7c-7.28,0-12.93-2.31-16.95-6.94v28.09h-17.06v-79.62h17.06v5.35
			C518.91,117.5,524.56,115.19,531.84,115.19z M518.7,155.34c2.54,2.5,5.78,3.75,9.73,3.75c3.94,0,7.18-1.25,9.72-3.75
			s3.81-5.88,3.81-10.12c0-4.25-1.27-7.62-3.81-10.12s-5.78-3.75-9.72-3.75c-3.94,0-7.19,1.25-9.73,3.75s-3.81,5.88-3.81,10.12
			C514.89,149.46,516.16,152.84,518.7,155.34z"/>
	</g>
	<g class="st0">
		<path class="st1" d="M623.4,173.65l-6.48-17.86h-35.83l-6.48,17.86h-11.26l29.69-79.62h11.94l29.69,79.62H623.4z M584.73,145.9
			h28.55l-14.33-39.24L584.73,145.9z"/>
		<path class="st1" d="M670.6,102.11c-10.01-0.83-15.01,3.49-15.01,12.97v1.71h15.01v9.55h-15.01v47.32h-9.9v-47.32h-9.1v-9.55h9.1
			v-1.71c0-7.66,2.14-13.46,6.43-17.4c4.28-3.94,10.45-5.65,18.48-5.12L670.6,102.11L670.6,102.11z"/>
		<path class="st1" d="M711.21,126.33h-15.13v30.82c0,2.81,0.55,4.8,1.65,5.97c1.1,1.18,2.79,1.78,5.06,1.82
			c2.27,0.04,5.08-0.02,8.42-0.17v8.87c-8.64,1.14-14.98,0.44-19-2.1c-4.02-2.54-6.03-7.34-6.03-14.39v-30.82h-11.26v-9.55h11.26
			v-12.97l9.9-2.96v15.92h15.13V126.33z"/>
		<path class="st1" d="M727.01,149.77c0.98,5.08,3.32,9.02,6.99,11.83c3.68,2.81,8.21,4.21,13.59,4.21c7.51,0,12.97-2.77,16.38-8.3
			l8.42,4.78c-5.54,8.57-13.88,12.85-25.02,12.85c-9.02,0-16.36-2.82-22.01-8.47s-8.47-12.8-8.47-21.44c0-8.57,2.77-15.7,8.3-21.38
			c5.53-5.69,12.7-8.53,21.5-8.53c8.34,0,15.15,2.94,20.42,8.81c5.27,5.88,7.91,12.95,7.91,21.21c0,1.44-0.11,2.92-0.34,4.44h-47.67
			V149.77z M746.69,124.63c-5.31,0-9.71,1.5-13.19,4.49c-3.49,3-5.65,7-6.48,12H765c-0.84-5.38-2.96-9.48-6.37-12.28
			C755.22,126.03,751.24,124.63,746.69,124.63z"/>
		<path class="st1" d="M796.28,126.33c3.26-7.05,9.17-10.58,17.74-10.58v10.35c-4.85-0.23-9.02,1.06-12.51,3.87
			c-3.49,2.81-5.23,7.32-5.23,13.54v30.14h-9.9v-56.87h9.9V126.33z"/>
		<path class="st1" d="M877.15,173.65l-6.48-17.86h-35.83l-6.48,17.86H817.1l29.69-79.62h11.94l29.69,79.62H877.15z M838.48,145.9
			h28.55l-14.33-39.24L838.48,145.9z"/>
		<path class="st1" d="M922.19,175.13c-8.57,0-15.7-2.86-21.38-8.59c-5.69-5.72-8.53-12.83-8.53-21.33c0-8.49,2.84-15.6,8.53-21.33
			c5.69-5.72,12.81-8.59,21.38-8.59c5.61,0,10.65,1.35,15.13,4.04c4.47,2.69,7.81,6.31,10.01,10.86l-8.3,4.78
			c-1.44-3.03-3.66-5.46-6.65-7.28c-3-1.82-6.39-2.73-10.18-2.73c-5.69,0-10.45,1.93-14.27,5.8c-3.83,3.87-5.74,8.68-5.74,14.44
			c0,5.69,1.91,10.46,5.74,14.33s8.59,5.8,14.27,5.8c3.79,0,7.2-0.89,10.24-2.67c3.03-1.78,5.35-4.19,6.94-7.22l8.42,4.89
			c-2.43,4.47-5.92,8.06-10.46,10.75C932.77,173.78,927.72,175.13,922.19,175.13z"/>
		<path class="st1" d="M983.5,175.13c-8.57,0-15.7-2.86-21.38-8.59c-5.69-5.72-8.53-12.83-8.53-21.33c0-8.49,2.84-15.6,8.53-21.33
			c5.69-5.72,12.81-8.59,21.38-8.59c5.61,0,10.65,1.35,15.13,4.04c4.47,2.69,7.81,6.31,10.01,10.86l-8.3,4.78
			c-1.44-3.03-3.66-5.46-6.65-7.28c-3-1.82-6.39-2.73-10.18-2.73c-5.69,0-10.45,1.93-14.27,5.8c-3.83,3.87-5.74,8.68-5.74,14.44
			c0,5.69,1.91,10.46,5.74,14.33s8.59,5.8,14.27,5.8c3.79,0,7.2-0.89,10.24-2.67c3.03-1.78,5.35-4.19,6.94-7.22l8.42,4.89
			c-2.43,4.47-5.92,8.06-10.46,10.75C994.08,173.78,989.03,175.13,983.5,175.13z"/>
		<path class="st1" d="M1023.88,106.43c-1.9,0-3.49-0.64-4.78-1.93c-1.29-1.29-1.93-2.84-1.93-4.66c0-1.82,0.64-3.39,1.93-4.72
			s2.88-1.99,4.78-1.99c1.82,0,3.37,0.67,4.66,1.99c1.29,1.33,1.93,2.9,1.93,4.72s-0.65,3.38-1.93,4.66
			C1027.25,105.79,1025.7,106.43,1023.88,106.43z M1018.87,173.65v-56.87h9.9v56.87H1018.87z"/>
		<path class="st1" d="M1090.98,94.03h9.9v79.62h-9.9v-9.78c-4.93,7.51-12.1,11.26-21.5,11.26c-7.96,0-14.75-2.9-20.36-8.7
			s-8.42-12.87-8.42-21.21s2.8-15.41,8.42-21.21c5.61-5.8,12.4-8.7,20.36-8.7c9.4,0,16.57,3.75,21.5,11.26V94.03z M1070.73,165.58
			c5.76,0,10.58-1.95,14.45-5.86c3.87-3.9,5.8-8.74,5.8-14.5s-1.93-10.6-5.8-14.5c-3.87-3.9-8.68-5.86-14.45-5.86
			c-5.69,0-10.46,1.95-14.33,5.86s-5.8,8.74-5.8,14.5s1.93,10.6,5.8,14.5S1065.05,165.58,1070.73,165.58z"/>
		<path class="st1" d="M1122.83,149.77c0.98,5.08,3.32,9.02,6.99,11.83c3.68,2.81,8.21,4.21,13.59,4.21c7.51,0,12.97-2.77,16.38-8.3
			l8.42,4.78c-5.54,8.57-13.88,12.85-25.02,12.85c-9.02,0-16.36-2.82-22.01-8.47s-8.47-12.8-8.47-21.44c0-8.57,2.77-15.7,8.3-21.38
			c5.53-5.69,12.7-8.53,21.5-8.53c8.34,0,15.15,2.94,20.42,8.81c5.27,5.88,7.91,12.95,7.91,21.21c0,1.44-0.11,2.92-0.34,4.44h-47.67
			V149.77z M1142.5,124.63c-5.31,0-9.71,1.5-13.19,4.49c-3.49,3-5.65,7-6.48,12h37.99c-0.84-5.38-2.96-9.48-6.37-12.28
			C1151.04,126.03,1147.05,124.63,1142.5,124.63z"/>
		<path class="st1" d="M1210.52,115.3c6.67,0,12.02,2.1,16.04,6.31s6.03,9.92,6.03,17.12v34.92h-9.9V139.3
			c0-4.62-1.25-8.21-3.75-10.75c-2.5-2.54-5.95-3.81-10.35-3.81c-4.93,0-8.91,1.54-11.94,4.61c-3.03,3.07-4.55,7.79-4.55,14.16
			v30.14h-9.9v-56.87h9.9v8.19C1196.11,118.53,1202.25,115.3,1210.52,115.3z"/>
		<path class="st1" d="M1277.29,126.33h-15.13v30.82c0,2.81,0.55,4.8,1.65,5.97c1.1,1.18,2.79,1.78,5.06,1.82
			c2.28,0.04,5.08-0.02,8.42-0.17v8.87c-8.64,1.14-14.98,0.44-18.99-2.1c-4.02-2.54-6.03-7.34-6.03-14.39v-30.82H1241v-9.55h11.26
			v-12.97l9.9-2.96v15.92h15.13V126.33z"/>
	</g>
</g>
<g>
	<path class="st2" d="M136.05,189.31c-39.4,0-72.65,26.9-82.36,63.3c6.66,5.26,13.78,9.89,21.3,13.78
		c6.13-28.06,31.19-49.14,61.06-49.14c29.89,0,54.93,21.07,61.09,49.11c7.52-3.89,14.64-8.49,21.28-13.75
		C208.73,216.2,175.48,189.31,136.05,189.31z"/>
	<path class="st2" d="M136.05,242.67c-19.22,0-35.08,14.69-36.91,33.43c11.74,3.41,24.12,5.24,36.91,5.24
		c12.81,0,25.19-1.83,36.94-5.26C171.13,257.33,155.29,242.67,136.05,242.67z"/>
	<path class="st2" d="M136.05,0C60.91,0,0,62.97,0,140.65c0,34.32,11.9,65.79,31.65,90.19c17.11-40.8,57.48-69.5,104.4-69.5
		c46.95,0,87.29,28.7,104.43,69.5c19.75-24.4,31.65-55.87,31.65-90.19C272.13,62.97,211.19,0,136.05,0z"/>
</g>
</svg>
